<mxfile host="Electron" agent="Mozilla/5.0 (X11; Linux x86_64) AppleWebKit/537.36 (KHTML, like Gecko) draw.io/26.1.1 Chrome/132.0.6834.210 Electron/34.3.3 Safari/537.36" version="26.1.1">
  <diagram name="Page-1" id="1WEKtStsEnG675ZOsZEF">
    <mxGraphModel dx="1558" dy="764" grid="1" gridSize="10" guides="1" tooltips="1" connect="1" arrows="1" fold="1" page="1" pageScale="1" pageWidth="1169" pageHeight="1654" math="0" shadow="0">
      <root>
        <mxCell id="0" />
        <mxCell id="1" parent="0" />
        <mxCell id="mZunVO_DWph6XE-iHSXh-3" style="edgeStyle=orthogonalEdgeStyle;rounded=0;orthogonalLoop=1;jettySize=auto;html=1;entryX=0.5;entryY=0;entryDx=0;entryDy=0;" edge="1" parent="1" source="mZunVO_DWph6XE-iHSXh-1">
          <mxGeometry relative="1" as="geometry">
            <mxPoint x="460" y="150" as="targetPoint" />
          </mxGeometry>
        </mxCell>
        <mxCell id="mZunVO_DWph6XE-iHSXh-1" value="Linkedin Scrapper" style="rounded=0;whiteSpace=wrap;html=1;fillColor=#f5f5f5;fontColor=#333333;strokeColor=#666666;" vertex="1" parent="1">
          <mxGeometry x="400" y="30" width="120" height="60" as="geometry" />
        </mxCell>
        <mxCell id="mZunVO_DWph6XE-iHSXh-9" style="edgeStyle=orthogonalEdgeStyle;rounded=0;orthogonalLoop=1;jettySize=auto;html=1;exitX=0;exitY=0.5;exitDx=0;exitDy=0;" edge="1" parent="1" source="mZunVO_DWph6XE-iHSXh-52" target="mZunVO_DWph6XE-iHSXh-12">
          <mxGeometry relative="1" as="geometry">
            <mxPoint x="220" y="430" as="targetPoint" />
            <mxPoint x="365" y="419.9999999999999" as="sourcePoint" />
            <Array as="points">
              <mxPoint x="215" y="450" />
            </Array>
          </mxGeometry>
        </mxCell>
        <mxCell id="mZunVO_DWph6XE-iHSXh-20" style="edgeStyle=orthogonalEdgeStyle;rounded=0;orthogonalLoop=1;jettySize=auto;html=1;exitX=0.5;exitY=1;exitDx=0;exitDy=0;entryX=0.5;entryY=0;entryDx=0;entryDy=0;" edge="1" parent="1">
          <mxGeometry relative="1" as="geometry">
            <mxPoint x="460" y="449.9999999999998" as="sourcePoint" />
            <mxPoint x="460" y="490" as="targetPoint" />
          </mxGeometry>
        </mxCell>
        <mxCell id="mZunVO_DWph6XE-iHSXh-11" value="Crew AI" style="text;html=1;align=center;verticalAlign=middle;whiteSpace=wrap;rounded=0;" vertex="1" parent="1">
          <mxGeometry x="390" y="380" width="60" height="30" as="geometry" />
        </mxCell>
        <mxCell id="mZunVO_DWph6XE-iHSXh-46" style="edgeStyle=orthogonalEdgeStyle;rounded=0;orthogonalLoop=1;jettySize=auto;html=1;exitX=0.5;exitY=1;exitDx=0;exitDy=0;entryX=0;entryY=0.5;entryDx=0;entryDy=0;" edge="1" parent="1" source="mZunVO_DWph6XE-iHSXh-12" target="mZunVO_DWph6XE-iHSXh-40">
          <mxGeometry relative="1" as="geometry">
            <Array as="points">
              <mxPoint x="215" y="570" />
              <mxPoint x="30" y="570" />
              <mxPoint x="30" y="270" />
            </Array>
          </mxGeometry>
        </mxCell>
        <mxCell id="mZunVO_DWph6XE-iHSXh-12" value="Mark Vacancy as processed &amp;amp; deleted" style="rounded=0;whiteSpace=wrap;html=1;" vertex="1" parent="1">
          <mxGeometry x="140" y="490" width="150" height="60" as="geometry" />
        </mxCell>
        <mxCell id="mZunVO_DWph6XE-iHSXh-13" value="non - vacancy" style="text;html=1;align=center;verticalAlign=middle;whiteSpace=wrap;rounded=0;" vertex="1" parent="1">
          <mxGeometry x="320" y="430" width="85" height="30" as="geometry" />
        </mxCell>
        <mxCell id="mZunVO_DWph6XE-iHSXh-57" style="edgeStyle=orthogonalEdgeStyle;rounded=0;orthogonalLoop=1;jettySize=auto;html=1;exitX=0.5;exitY=1;exitDx=0;exitDy=0;entryX=0.5;entryY=0;entryDx=0;entryDy=0;" edge="1" parent="1" source="mZunVO_DWph6XE-iHSXh-21" target="mZunVO_DWph6XE-iHSXh-56">
          <mxGeometry relative="1" as="geometry" />
        </mxCell>
        <mxCell id="mZunVO_DWph6XE-iHSXh-21" value="Linkedin Analyst:&lt;div&gt;Validate and aquire data from vacancy&lt;/div&gt;" style="rounded=0;whiteSpace=wrap;html=1;fillColor=#dae8fc;strokeColor=#6c8ebf;" vertex="1" parent="1">
          <mxGeometry x="365" y="560" width="190" height="60" as="geometry" />
        </mxCell>
        <mxCell id="mZunVO_DWph6XE-iHSXh-29" value="vacancy" style="text;html=1;align=center;verticalAlign=middle;whiteSpace=wrap;rounded=0;" vertex="1" parent="1">
          <mxGeometry x="400" y="505" width="60" height="30" as="geometry" />
        </mxCell>
        <mxCell id="mZunVO_DWph6XE-iHSXh-41" style="edgeStyle=orthogonalEdgeStyle;rounded=0;orthogonalLoop=1;jettySize=auto;html=1;exitX=0.5;exitY=1;exitDx=0;exitDy=0;entryX=0.5;entryY=0;entryDx=0;entryDy=0;" edge="1" parent="1" source="mZunVO_DWph6XE-iHSXh-39" target="mZunVO_DWph6XE-iHSXh-40">
          <mxGeometry relative="1" as="geometry" />
        </mxCell>
        <mxCell id="mZunVO_DWph6XE-iHSXh-39" value="Compare with stored and store" style="rounded=0;whiteSpace=wrap;html=1;" vertex="1" parent="1">
          <mxGeometry x="375.00000000000006" y="150" width="170" height="60" as="geometry" />
        </mxCell>
        <mxCell id="mZunVO_DWph6XE-iHSXh-45" style="edgeStyle=orthogonalEdgeStyle;rounded=0;orthogonalLoop=1;jettySize=auto;html=1;exitX=1;exitY=0.5;exitDx=0;exitDy=0;entryX=0;entryY=0.5;entryDx=0;entryDy=0;" edge="1" parent="1" source="mZunVO_DWph6XE-iHSXh-40" target="mZunVO_DWph6XE-iHSXh-44">
          <mxGeometry relative="1" as="geometry" />
        </mxCell>
        <mxCell id="mZunVO_DWph6XE-iHSXh-47" style="edgeStyle=orthogonalEdgeStyle;rounded=0;orthogonalLoop=1;jettySize=auto;html=1;exitX=0.5;exitY=1;exitDx=0;exitDy=0;" edge="1" parent="1" source="mZunVO_DWph6XE-iHSXh-40">
          <mxGeometry relative="1" as="geometry">
            <mxPoint x="460" y="390" as="targetPoint" />
          </mxGeometry>
        </mxCell>
        <mxCell id="mZunVO_DWph6XE-iHSXh-40" value="for unporcessed&lt;br&gt;&lt;div&gt;post&lt;/div&gt;" style="rhombus;whiteSpace=wrap;html=1;" vertex="1" parent="1">
          <mxGeometry x="420" y="230" width="80" height="80" as="geometry" />
        </mxCell>
        <mxCell id="mZunVO_DWph6XE-iHSXh-44" value="End" style="ellipse;whiteSpace=wrap;html=1;" vertex="1" parent="1">
          <mxGeometry x="610" y="245" width="170" height="50" as="geometry" />
        </mxCell>
        <mxCell id="mZunVO_DWph6XE-iHSXh-53" style="edgeStyle=orthogonalEdgeStyle;rounded=0;orthogonalLoop=1;jettySize=auto;html=1;exitX=0.5;exitY=1;exitDx=0;exitDy=0;entryX=0.5;entryY=0;entryDx=0;entryDy=0;" edge="1" parent="1" source="mZunVO_DWph6XE-iHSXh-52" target="mZunVO_DWph6XE-iHSXh-21">
          <mxGeometry relative="1" as="geometry" />
        </mxCell>
        <mxCell id="mZunVO_DWph6XE-iHSXh-52" value="Linkedin Analyst:&lt;div&gt;Verify vacancy&lt;/div&gt;" style="rhombus;whiteSpace=wrap;html=1;fillColor=#dae8fc;strokeColor=#6c8ebf;" vertex="1" parent="1">
          <mxGeometry x="400" y="390" width="120" height="120" as="geometry" />
        </mxCell>
        <mxCell id="mZunVO_DWph6XE-iHSXh-54" value="no unprocessed" style="text;html=1;align=center;verticalAlign=middle;whiteSpace=wrap;rounded=0;" vertex="1" parent="1">
          <mxGeometry x="500" y="240" width="100" height="30" as="geometry" />
        </mxCell>
        <mxCell id="mZunVO_DWph6XE-iHSXh-60" style="edgeStyle=orthogonalEdgeStyle;rounded=0;orthogonalLoop=1;jettySize=auto;html=1;exitX=0.5;exitY=1;exitDx=0;exitDy=0;entryX=0.5;entryY=0;entryDx=0;entryDy=0;" edge="1" parent="1" source="mZunVO_DWph6XE-iHSXh-56" target="mZunVO_DWph6XE-iHSXh-59">
          <mxGeometry relative="1" as="geometry" />
        </mxCell>
        <mxCell id="mZunVO_DWph6XE-iHSXh-56" value="Mark Vacancy as processed &amp;amp; store vacancy" style="rounded=0;whiteSpace=wrap;html=1;" vertex="1" parent="1">
          <mxGeometry x="385" y="650" width="150" height="60" as="geometry" />
        </mxCell>
        <mxCell id="mZunVO_DWph6XE-iHSXh-58" value="unporcessed" style="text;html=1;align=center;verticalAlign=middle;whiteSpace=wrap;rounded=0;" vertex="1" parent="1">
          <mxGeometry x="385" y="330" width="60" height="30" as="geometry" />
        </mxCell>
        <mxCell id="mZunVO_DWph6XE-iHSXh-62" style="edgeStyle=orthogonalEdgeStyle;rounded=0;orthogonalLoop=1;jettySize=auto;html=1;exitX=0.5;exitY=1;exitDx=0;exitDy=0;entryX=0.5;entryY=0;entryDx=0;entryDy=0;" edge="1" parent="1" source="mZunVO_DWph6XE-iHSXh-59" target="mZunVO_DWph6XE-iHSXh-61">
          <mxGeometry relative="1" as="geometry" />
        </mxCell>
        <mxCell id="mZunVO_DWph6XE-iHSXh-59" value="Recrutier:&lt;div&gt;Evaluate common CV and give review&lt;/div&gt;" style="rounded=0;whiteSpace=wrap;html=1;fillColor=#dae8fc;strokeColor=#6c8ebf;" vertex="1" parent="1">
          <mxGeometry x="365" y="740" width="190" height="60" as="geometry" />
        </mxCell>
        <mxCell id="mZunVO_DWph6XE-iHSXh-64" style="edgeStyle=orthogonalEdgeStyle;rounded=0;orthogonalLoop=1;jettySize=auto;html=1;exitX=0.5;exitY=1;exitDx=0;exitDy=0;entryX=0.5;entryY=0;entryDx=0;entryDy=0;" edge="1" parent="1" source="mZunVO_DWph6XE-iHSXh-61" target="mZunVO_DWph6XE-iHSXh-63">
          <mxGeometry relative="1" as="geometry" />
        </mxCell>
        <mxCell id="mZunVO_DWph6XE-iHSXh-61" value="Recrutier:&lt;div&gt;Based on evaluation and review create new cv&lt;/div&gt;" style="rounded=0;whiteSpace=wrap;html=1;fillColor=#dae8fc;strokeColor=#6c8ebf;" vertex="1" parent="1">
          <mxGeometry x="365" y="840" width="190" height="60" as="geometry" />
        </mxCell>
        <mxCell id="mZunVO_DWph6XE-iHSXh-66" style="edgeStyle=orthogonalEdgeStyle;rounded=0;orthogonalLoop=1;jettySize=auto;html=1;exitX=0.5;exitY=1;exitDx=0;exitDy=0;entryX=0.5;entryY=0;entryDx=0;entryDy=0;" edge="1" parent="1" source="mZunVO_DWph6XE-iHSXh-63" target="mZunVO_DWph6XE-iHSXh-65">
          <mxGeometry relative="1" as="geometry" />
        </mxCell>
        <mxCell id="mZunVO_DWph6XE-iHSXh-63" value="Recrutier:&lt;div&gt;Based on evaluation and review create new cv&lt;/div&gt;" style="rounded=0;whiteSpace=wrap;html=1;fillColor=#dae8fc;strokeColor=#6c8ebf;" vertex="1" parent="1">
          <mxGeometry x="365" y="940" width="190" height="60" as="geometry" />
        </mxCell>
        <mxCell id="mZunVO_DWph6XE-iHSXh-74" style="edgeStyle=orthogonalEdgeStyle;rounded=0;orthogonalLoop=1;jettySize=auto;html=1;exitX=0.5;exitY=1;exitDx=0;exitDy=0;" edge="1" parent="1" source="mZunVO_DWph6XE-iHSXh-65" target="mZunVO_DWph6XE-iHSXh-73">
          <mxGeometry relative="1" as="geometry" />
        </mxCell>
        <mxCell id="mZunVO_DWph6XE-iHSXh-65" value="Recrutier:&lt;div&gt;Based on CV create Cover Letter and email&lt;/div&gt;" style="rounded=0;whiteSpace=wrap;html=1;fillColor=#dae8fc;strokeColor=#6c8ebf;" vertex="1" parent="1">
          <mxGeometry x="365" y="1040" width="190" height="60" as="geometry" />
        </mxCell>
        <mxCell id="mZunVO_DWph6XE-iHSXh-68" value="Crew AI" style="text;html=1;align=center;verticalAlign=middle;whiteSpace=wrap;rounded=0;" vertex="1" parent="1">
          <mxGeometry x="365" y="540" width="60" height="30" as="geometry" />
        </mxCell>
        <mxCell id="mZunVO_DWph6XE-iHSXh-69" value="Crew AI" style="text;html=1;align=center;verticalAlign=middle;whiteSpace=wrap;rounded=0;" vertex="1" parent="1">
          <mxGeometry x="365" y="720" width="60" height="30" as="geometry" />
        </mxCell>
        <mxCell id="mZunVO_DWph6XE-iHSXh-70" value="Crew AI" style="text;html=1;align=center;verticalAlign=middle;whiteSpace=wrap;rounded=0;" vertex="1" parent="1">
          <mxGeometry x="365" y="820" width="60" height="30" as="geometry" />
        </mxCell>
        <mxCell id="mZunVO_DWph6XE-iHSXh-71" value="Crew AI" style="text;html=1;align=center;verticalAlign=middle;whiteSpace=wrap;rounded=0;" vertex="1" parent="1">
          <mxGeometry x="365" y="920" width="60" height="30" as="geometry" />
        </mxCell>
        <mxCell id="mZunVO_DWph6XE-iHSXh-72" value="Crew AI" style="text;html=1;align=center;verticalAlign=middle;whiteSpace=wrap;rounded=0;" vertex="1" parent="1">
          <mxGeometry x="365" y="1020" width="60" height="30" as="geometry" />
        </mxCell>
        <mxCell id="mZunVO_DWph6XE-iHSXh-76" style="edgeStyle=orthogonalEdgeStyle;rounded=0;orthogonalLoop=1;jettySize=auto;html=1;exitX=0.5;exitY=1;exitDx=0;exitDy=0;entryX=0.5;entryY=0;entryDx=0;entryDy=0;" edge="1" parent="1" source="mZunVO_DWph6XE-iHSXh-73" target="mZunVO_DWph6XE-iHSXh-75">
          <mxGeometry relative="1" as="geometry" />
        </mxCell>
        <mxCell id="mZunVO_DWph6XE-iHSXh-73" value="Save generated resume" style="rounded=0;whiteSpace=wrap;html=1;" vertex="1" parent="1">
          <mxGeometry x="385" y="1130" width="150" height="60" as="geometry" />
        </mxCell>
        <mxCell id="mZunVO_DWph6XE-iHSXh-79" style="edgeStyle=orthogonalEdgeStyle;rounded=0;orthogonalLoop=1;jettySize=auto;html=1;exitX=0.5;exitY=1;exitDx=0;exitDy=0;entryX=0.5;entryY=0;entryDx=0;entryDy=0;" edge="1" parent="1" source="mZunVO_DWph6XE-iHSXh-75" target="mZunVO_DWph6XE-iHSXh-78">
          <mxGeometry relative="1" as="geometry" />
        </mxCell>
        <mxCell id="mZunVO_DWph6XE-iHSXh-75" value="Store evaluation, resume and email in database" style="rounded=0;whiteSpace=wrap;html=1;" vertex="1" parent="1">
          <mxGeometry x="385" y="1220" width="150" height="60" as="geometry" />
        </mxCell>
        <mxCell id="mZunVO_DWph6XE-iHSXh-80" style="edgeStyle=orthogonalEdgeStyle;rounded=0;orthogonalLoop=1;jettySize=auto;html=1;entryX=0;entryY=0.5;entryDx=0;entryDy=0;" edge="1" parent="1" source="mZunVO_DWph6XE-iHSXh-78" target="mZunVO_DWph6XE-iHSXh-40">
          <mxGeometry relative="1" as="geometry">
            <Array as="points">
              <mxPoint x="460" y="1390" />
              <mxPoint x="30" y="1390" />
              <mxPoint x="30" y="270" />
            </Array>
          </mxGeometry>
        </mxCell>
        <mxCell id="mZunVO_DWph6XE-iHSXh-78" value="Send stored email with all required fields" style="rounded=0;whiteSpace=wrap;html=1;" vertex="1" parent="1">
          <mxGeometry x="385" y="1310" width="150" height="60" as="geometry" />
        </mxCell>
      </root>
    </mxGraphModel>
  </diagram>
</mxfile>
